<svg width="18" height="18" viewBox="0 0 18 18" fill="none" xmlns="http://www.w3.org/2000/svg">
<path d="M5.31596 9.47435L6.13674 9.96746C6.27036 9.96746 6.34035 9.91019 6.34035 9.79885C6.33054 9.69343 6.29798 9.59141 6.24491 9.4998L4.46337 6.15625L0.521735 6.25169C0.485028 6.24859 0.448092 6.25371 0.413609 6.26667C0.379125 6.27962 0.347959 6.30009 0.322372 6.3266C0.296785 6.3531 0.277419 6.38496 0.26568 6.41988C0.253942 6.45479 0.250124 6.49189 0.254505 6.52846C0.254505 6.56982 0.311768 6.6239 0.423114 6.69707L1.24071 7.19017L0.359488 8.53587C0.157393 8.81662 0.0333494 9.14594 0 9.49026C0.0119127 9.76116 0.0941418 10.0243 0.238598 10.2538L2.92044 14.9303C2.85907 14.6545 2.82708 14.373 2.825 14.0904C2.83235 13.5877 2.98843 13.0984 3.27357 12.6843L5.31915 9.47435H5.31596Z" fill="#424242"/>
<path d="M6.34988 6.75398L8.56089 3.31816C7.73375 1.43483 6.85571 0.493164 5.92677 0.493164C5.36686 0.493164 4.99146 0.649048 4.7974 0.960816L2.7041 4.30437L6.34988 6.75398Z" fill="#424242"/>
<path d="M4.54608 16.0278H8.81222V11.5898H4.70197C4.35572 12.0598 4.03706 12.5495 3.74757 13.0564C3.54407 13.4421 3.43504 13.8706 3.42944 14.3067C3.42944 15.4541 3.79847 16.0278 4.53654 16.0278H4.54608Z" fill="#424242"/>
<path d="M13.3362 5.92677L15.245 2.74547C15.3067 2.63912 15.3396 2.51849 15.3404 2.39552C15.3404 2.25237 15.2927 2.1792 15.1972 2.1792C15.136 2.21185 15.0708 2.23645 15.0032 2.25237L14.1283 2.61822L13.3362 1.05619C12.9905 0.352065 12.2874 0 11.227 0H6.27686C6.71347 0.107653 7.12796 0.290673 7.50166 0.540822C8.00855 0.941667 8.52604 1.69458 9.05414 2.79955L10.0403 4.8674L9.31819 5.21734C9.28216 5.23436 9.25236 5.26221 9.23296 5.29702C9.21356 5.33182 9.20554 5.37181 9.21002 5.4114C9.21002 5.52911 9.28637 5.5991 9.43907 5.61501L13.3489 5.93314L13.3362 5.92677Z" fill="#424242"/>
<path d="M15.2353 15.3653L17.9999 10.3389C17.6478 10.7656 17.1874 11.0898 16.6669 11.2774C16.1306 11.4251 15.575 11.4905 15.019 11.4714H11.9395V10.8352C11.9395 10.587 11.8791 10.4629 11.7582 10.4629C11.7207 10.46 11.6831 10.4673 11.6495 10.4841C11.6158 10.5009 11.5874 10.5266 11.5673 10.5584L9.63623 13.9337L11.6564 17.0387C11.8091 17.2709 11.9395 17.3568 12.0508 17.3123C12.1622 17.2678 12.2195 17.2232 12.2195 17.1341V16.0748H13.9278C14.1934 16.0972 14.4598 16.0421 14.6947 15.9162C14.9296 15.7903 15.1229 15.5989 15.2512 15.3653H15.2353Z" fill="#424242"/>
<path d="M14.033 10.8323H15.8718C16.3822 10.8046 16.8671 10.5998 17.2429 10.2533C17.7498 9.85241 18.0022 9.42824 18.0001 8.98073C17.995 8.76033 17.9241 8.54648 17.7965 8.36674L15.6077 5.02637L11.8442 7.21511L14.033 10.8323Z" fill="#424242"/>
</svg>
